<svg width="64" height="64" viewBox="0 0 64 64" fill="none" xmlns="http://www.w3.org/2000/svg">
  <circle cx="32" cy="32" r="30" fill="url(#bg)" />
  <circle cx="32" cy="32" r="29" stroke="#7F1D3A" stroke-width="2" />

  <!-- Bishop inspired by caliente bb.svg -->
  <g transform="translate(3.2 2.2) scale(0.9)">
    <path d="M24 49C7 28 32 13 32 13C32 13 57 28 40 49" fill="#595959" />
    <path d="M33 16C26 24 19 41 34 50L24 49C8 32 22 17 32 15L33 16Z" fill="#8C8C8C" />
    <path
      d="M24 49C7 26 32 15 32 15C32 15 57 26 40 49"
      stroke="#111111"
      stroke-width="2.8"
      stroke-miterlimit="2.4"
      stroke-linejoin="round"
    />
    <path
      d="M19 48C19 48 18 50 18 54C24 56 32 56 32 56C32 56 40 56 46 54C46 50 45 48 45 48C40 50 32 50 32 50C32 50 24 50 19 48Z"
      fill="#595959"
    />
    <path d="M19 48L18 54L25 55L26 50L19 48Z" fill="#8C8C8C" />
    <path
      d="M19 48C19 48 18 50 18 54C24 56 32 56 32 56C32 56 40 56 46 54C46 50 45 48 45 48C40 50 32 50 32 50C32 50 24 50 19 48Z"
      stroke="#111111"
      stroke-width="2.8"
      stroke-linecap="round"
      stroke-linejoin="round"
    />
    <circle cx="32" cy="11" r="4" fill="#8C8C8C" stroke="#111111" stroke-width="2.8" />
    <path
      d="M32 15C44 21 36 29 32 33"
      stroke="#111111"
      stroke-width="2.8"
      stroke-miterlimit="2.4"
      stroke-linecap="round"
      stroke-linejoin="round"
    />
  </g>

  <defs>
    <linearGradient id="bg" x1="8" y1="8" x2="56" y2="56" gradientUnits="userSpaceOnUse">
      <stop stop-color="#3B0D1E" />
      <stop offset="1" stop-color="#5A1531" />
    </linearGradient>
  </defs>
</svg>
